# xmcd
#
# Track frame offsets:
#	222
#	23430
#	40509
#	63078
#	74145
#	96589
#	113249
#	135956
#	147512
#	158826
#	180949
#	201762
#	215177
#	233262
#	249021
#	267412
#	279401
#	297099
#
# Disc length: 4195 seconds
#
# Revision: 3
# Processed by: cddbd v1.5.2PL0 Copyright (c) Steve Scherf et al.
# Submitted via: EasyCDDAExtractor 11.1.0.1
#
DISCID=fc106112
DTITLE=Various Artist - The Great Southern Blues And Rockabilly Festival 2000
DYEAR=2000
DGENRE=Blues
TTITLE0=Dave Hole - Demolition Man
TTITLE1=Damon Davies - Just A Feeling
TTITLE2=Lil Malcolm And The Houserockers - My Toot Toot
TTITLE3=Red Rivers And The Rocketones - Jellignite
TTITLE4=Bondi Cigars - Spirit Level
TTITLE5=Ray Hoff And His Combo - Electric Mud
TTITLE6=Bob Patient - Be Bob Boogie
TTITLE7=Rock Bottom James And The Detonators - Skinny Skinny Skinny
TTITLE8=Mal Eastick - The Est Shuffle
TTITLE9=Mandrake - Mean Woman Blues
TTITLE10=Eugene 'Hideway' Bridges - Pay The Rent
TTITLE11=Barbara Blue - No No Baby
TTITLE12=Andrew 'Jr Boy' Jones - Lost Love Blues
TTITLE13=Wild Turkey - Love That Kills
TTITLE14=Matt Taylor And Chain - Magic Zip
TTITLE15=Satellite V - Beatles Miss You Johnny
TTITLE16=Lil' Fi - Loverman
TTITLE17=Chris Howard And H30 - Loyalty
EXTD=
EXTT0=
EXTT1=
EXTT2=
EXTT3=
EXTT4=
EXTT5=
EXTT6=
EXTT7=
EXTT8=
EXTT9=
EXTT10=
EXTT11=
EXTT12=
EXTT13=
EXTT14=
EXTT15=
EXTT16=
EXTT17=
PLAYORDER=
